<?xml version="1.0" encoding="iso-8859-1"?>
<!-- Generator: Adobe Illustrator 19.0.0, SVG Export Plug-In . SVG Version: 6.00 Build 0)  -->
<svg version="1.1" id="Layer_1" xmlns="http://www.w3.org/2000/svg" xmlns:xlink="http://www.w3.org/1999/xlink" x="0px" y="0px"
	 viewBox="-140 -140 700 700" style="enable-background:new 0 0 389.724 389.724;" xml:space="preserve">
<g>
	<rect x="149.333" y="333.935" style="fill:#FFC10D;" width="140.347" height="34.715"/>
	<path style="fill:#FFC10D;" d="M149.333,40.763v38.465h38.465C183.467,60.221,168.275,45.094,149.333,40.763z"/>
	<path style="fill:#FFC10D;" d="M89.147,79.227h38.465V40.763C108.671,45.094,93.479,60.221,89.147,79.227z"/>
	<path style="fill:#FFC10D;" d="M127.612,139.349v-38.465H89.147C93.479,120.407,108.671,135.017,127.612,139.349z"/>
</g>
<path style="fill:#56ACE0;" d="M237.123,277.563c-1.099,5.947-6.529,10.279-12.477,9.244c-5.947-0.517-10.279-6.529-9.244-12.477
	l11.378-82.941h-77.446v120.889h140.347V191.389h-41.18L237.123,277.563z"/>
<g>
	<polygon style="fill:#FFFFFF;" points="251.733,169.733 289.681,169.733 289.681,100.884 260.978,100.884 	"/>
	<polygon style="fill:#FFFFFF;" points="239.257,100.884 149.333,100.884 149.333,169.733 230.077,169.733 	"/>
</g>
<path style="fill:#194F82;" d="M319.483,19.042c4.331-3.814,5.43-10.861,1.099-15.192c-3.814-4.331-10.861-5.43-15.192-1.099
	l-56.372,47.127c-2.198,1.616-3.232,4.331-3.814,7.046l-3.232,22.238h-32.517c-5.43-34.715-35.232-61.22-70.982-61.22
	c-39.564,0-72.081,32.517-72.081,72.081c0,36.331,26.57,66.133,61.22,70.982v217.859c0,5.947,4.848,10.861,10.861,10.861h162.069
	c5.947,0,10.861-4.848,10.861-10.861V90.088c0-5.947-4.848-10.861-10.861-10.861h-36.848l2.198-15.192L319.483,19.042z
	 M289.681,368.65H149.333v-34.715h140.347V368.65z M127.612,40.763v38.465H89.147C93.479,60.221,108.671,45.094,127.612,40.763z
	 M149.333,40.763c18.941,4.331,34.133,19.523,38.465,38.465h-38.465V40.763z M149.333,100.884h89.988l-9.244,68.848h-80.743V100.884
	z M127.612,100.884v38.465c-18.941-4.331-34.133-19.523-38.465-38.465H127.612z M289.681,312.278H149.333V191.389h77.511
	l-11.378,82.941c-0.517,5.947,3.232,11.378,9.244,12.477c5.947,0.517,11.378-3.232,12.477-9.244l11.313-85.592h41.18V312.278z
	 M289.681,169.733h-37.947l9.244-68.848h28.703L289.681,169.733L289.681,169.733z"/>
<g>
</g>
<g>
</g>
<g>
</g>
<g>
</g>
<g>
</g>
<g>
</g>
<g>
</g>
<g>
</g>
<g>
</g>
<g>
</g>
<g>
</g>
<g>
</g>
<g>
</g>
<g>
</g>
<g>
</g>
</svg>
